<?xml version="1.0"?>
<svg xmlns="http://www.w3.org/2000/svg" xmlns:xlink="http://www.w3.org/1999/xlink" version="1.1" id="Capa_1" x="0px" y="0px" viewBox="0 0 612.004 612.004" style="enable-background:new 0 0 612.004 612.004;" xml:space="preserve" width="512px" height="512px"><g><g>
	<g>
		<path d="M517.104,390.704l-39.288,39.288v-194.96c0-121.068-98.499-219.564-219.567-219.564h-38.682    C98.497,15.467,0,113.963,0,235.031c0,30.7,24.889,55.589,55.589,55.589s55.589-24.886,55.589-55.589    c0-59.763,48.622-108.386,108.388-108.386h38.682c59.766,0,108.388,48.623,108.388,108.386v194.963l-39.288-39.288    c-21.706-21.708-56.904-21.706-78.614-0.002c-21.71,21.71-21.71,56.908,0,78.616l94.489,94.491    c21.103,21.105,49.16,32.726,79.005,32.726c29.842,0,57.902-11.621,79.005-32.726l94.489-94.491    c21.708-21.708,21.708-56.906,0-78.616C574.01,368.993,538.812,368.991,517.104,390.704z" data-original="#000000" class="active-path" data-old_color="#000000" fill="#8BC34A"/>
	</g>
</g></g> </svg>
